<svg width="20" height="20" viewBox="0 0 20 20" fill="none" xmlns="http://www.w3.org/2000/svg">
<path d="M8.56005 13.3867C8.4725 13.3868 8.38578 13.3696 8.3049 13.336C8.22401 13.3025 8.15055 13.2533 8.08872 13.1913L5.52872 10.6313C5.46505 10.5698 5.41426 10.4963 5.37932 10.4149C5.34438 10.3336 5.32599 10.2461 5.32522 10.1576C5.32445 10.0691 5.34132 9.9813 5.37484 9.89937C5.40836 9.81744 5.45786 9.743 5.52046 9.68041C5.58305 9.61781 5.65749 9.56831 5.73942 9.53479C5.82135 9.50127 5.90914 9.4844 5.99766 9.48517C6.08617 9.48594 6.17365 9.50433 6.25499 9.53927C6.33633 9.57421 6.40989 9.625 6.47139 9.68867L8.56005 11.7773L13.5287 6.80867C13.6545 6.68723 13.8229 6.62003 13.9977 6.62155C14.1725 6.62307 14.3397 6.69319 14.4633 6.81679C14.5869 6.9404 14.657 7.1076 14.6585 7.2824C14.66 7.4572 14.5928 7.6256 14.4714 7.75134L9.03139 13.1913C8.96956 13.2533 8.8961 13.3025 8.81521 13.336C8.73432 13.3696 8.64761 13.3868 8.56005 13.3867Z" fill="#171717"/>
</svg>
